0
SECTION
2
HEADER
9
$INSUNITS
70
1
9
$ACADVER
1
AC1014
9
$HANDSEED
5
FFFF
0
ENDSEC
0
SECTION
2
TABLES
0
TABLE
2
VPORT
5
8
100
AcDbSymbolTable
0
ENDTAB
0
TABLE
2
LTYPE
5
5
100
AcDbSymbolTable
0
LTYPE
5
14
100
AcDbSymbolTableRecord
100
AcDbLinetypeTableRecord
2
BYBLOCK
70
0
0
LTYPE
5
15
100
AcDbSymbolTableRecord
100
AcDbLinetypeTableRecord
2
BYLAYER
70
0
0
ENDTAB
0
TABLE
2
LAYER
5
2
100
AcDbSymbolTable
70
2
0
LAYER
5
50
100
AcDbSymbolTableRecord
100
AcDbLayerTableRecord
2
0
70
0
6
CONTINUOUS
0
ENDTAB
0
TABLE
2
STYLE
5
3
100
AcDbSymbolTable
70
1
0
STYLE
5
11
100
AcDbSymbolTableRecord
100
AcDbTextStyleTableRecord
2
STANDARD
70
0
0
ENDTAB
0
TABLE
2
VIEW
5
6
100
AcDbSymbolTable
70
0
0
ENDTAB
0
TABLE
2
UCS
5
7
100
AcDbSymbolTable
70
0
0
ENDTAB
0
TABLE
2
APPID
5
9
100
AcDbSymbolTable
70
2
0
APPID
5
12
100
AcDbSymbolTableRecord
100
AcDbRegAppTableRecord
2
ACAD
70
0
0
ENDTAB
0
TABLE
2
DIMSTYLE
5
A
100
AcDbSymbolTable
70
1
0
ENDTAB
0
TABLE
2
BLOCK_RECORD
5
1
100
AcDbSymbolTable
70
1
0
BLOCK_RECORD
5
1F
100
AcDbSymbolTableRecord
100
AcDbBlockTableRecord
2
*MODEL_SPACE
0
BLOCK_RECORD
5
1B
100
AcDbSymbolTableRecord
100
AcDbBlockTableRecord
2
*PAPER_SPACE
0
ENDTAB
0
ENDSEC
0
SECTION
2
BLOCKS
0
BLOCK
5
20
100
AcDbEntity
100
AcDbBlockBegin
2
*MODEL_SPACE
0
ENDBLK
5
21
100
AcDbEntity
100
AcDbBlockEnd
0
BLOCK
5
1C
100
AcDbEntity
100
AcDbBlockBegin
2
*PAPER_SPACE
0
ENDBLK
5
1D
100
AcDbEntity
100
AcDbBlockEnd
0
ENDSEC
0
SECTION
2
ENTITIES
0
CIRCLE
5
100
100
AcDbEntity
8
0
100
AcDbCircle
10
-1.684093825759122
20
3.2217145684041499
30
0
40
0.12999999999999998
210
0
220
0
230
1
0
CIRCLE
5
101
100
AcDbEntity
8
0
100
AcDbCircle
10
-1.7375588069548487
20
0.90171456840415054
30
0
40
0.12999999999999995
210
0
220
0
230
1
0
CIRCLE
5
102
100
AcDbEntity
8
0
100
AcDbCircle
10
-0.58755880695484897
20
0.88197029164662621
30
0
40
0.12999999999999998
210
0
220
0
230
1
0
CIRCLE
5
103
100
AcDbEntity
8
0
100
AcDbCircle
10
-0.53409382575912201
20
3.2019702916466257
30
0
40
0.12999999999999987
210
0
220
0
230
1
0
LWPOLYLINE
5
104
100
AcDbEntity
8
0
100
AcDbPolyline
90
8
70
1
43
0.0
10
-1.6376880397540066
20
2.9377345498072764
10
-0.59549049460093584
20
2.9377345498072764
42
-0.41421356237309476
10
-0.39549049460093566
20
2.7377345498072767
10
-0.39549049460093594
20
1.6121551337352911
42
-0.41421356237309515
10
-0.59549049460093606
20
1.4121551337352911
10
-1.6376880397540066
20
1.4121551337352911
42
-0.41421356237309404
10
-1.8376880397540067
20
1.6121551337352911
10
-1.837688039754007
20
2.7377345498072767
42
-0.41421356237309659
0
SPLINE
5
105
100
AcDbEntity
8
0
100
AcDbSpline
70
4
71
5
72
96
73
90
74
0
42
0.000000001
43
0.0000000001
44
0.0000000001
40
0
40
0
40
0
40
0
40
0
40
0
40
0.011764705882352941
40
0.023529411764705882
40
0.035294117647058823
40
0.047058823529411764
40
0.058823529411764705
40
0.070588235294117646
40
0.082352941176470587
40
0.094117647058823528
40
0.10588235294117647
40
0.11764705882352941
40
0.12941176470588234
40
0.14117647058823529
40
0.15294117647058825
40
0.1647058823529412
40
0.17647058823529416
40
0.18823529411764711
40
0.20000000000000007
40
0.21176470588235302
40
0.22352941176470598
40
0.23529411764705893
40
0.24705882352941189
40
0.25882352941176484
40
0.2705882352941178
40
0.28235294117647075
40
0.29411764705882371
40
0.30588235294117666
40
0.31764705882352962
40
0.32941176470588257
40
0.34117647058823553
40
0.35294117647058848
40
0.36470588235294144
40
0.37647058823529439
40
0.38823529411764734
40
0.4000000000000003
40
0.41176470588235325
40
0.42352941176470621
40
0.43529411764705916
40
0.44705882352941212
40
0.45882352941176507
40
0.47058823529411803
40
0.48235294117647098
40
0.49411764705882394
40
0.50588235294117689
40
0.51764705882352979
40
0.52941176470588269
40
0.54117647058823559
40
0.55294117647058849
40
0.56470588235294139
40
0.57647058823529429
40
0.58823529411764719
40
0.60000000000000009
40
0.61176470588235299
40
0.62352941176470589
40
0.63529411764705879
40
0.64705882352941169
40
0.65882352941176459
40
0.67058823529411749
40
0.68235294117647038
40
0.69411764705882328
40
0.70588235294117618
40
0.71764705882352908
40
0.72941176470588198
40
0.74117647058823488
40
0.75294117647058778
40
0.76470588235294068
40
0.77647058823529358
40
0.78823529411764648
40
0.79999999999999938
40
0.81176470588235228
40
0.82352941176470518
40
0.83529411764705808
40
0.84705882352941098
40
0.85882352941176388
40
0.87058823529411677
40
0.88235294117646967
40
0.89411764705882257
40
0.90588235294117547
40
0.91764705882352837
40
0.92941176470588127
40
0.94117647058823417
40
0.95294117647058707
40
0.96470588235293997
40
0.97647058823529287
40
0.98823529411764577
40
1
40
1
40
1
40
1
40
1
40
1
41
1
41
1
41
1
41
1
41
1
41
1
41
1
41
1
41
1
41
1
41
1
41
1
41
1
41
1
41
1
41
1
41
1
41
1
41
1
41
1
41
1
41
1
41
1
41
1
41
1
41
1
41
1
41
1
41
1
41
1
41
1
41
1
41
1
41
1
41
1
41
1
41
1
41
1
41
1
41
1
41
1
41
1
41
1
41
1
41
1
41
1
41
1
41
1
41
1
41
1
41
1
41
1
41
1
41
1
41
1
41
1
41
1
41
1
41
1
41
1
41
1
41
1
41
1
41
1
41
1
41
1
41
1
41
1
41
1
41
1
41
1
41
1
41
1
41
1
41
1
41
1
41
1
41
1
41
1
41
1
41
1
41
1
41
1
41
1
41
1
41
1
41
1
41
1
41
1
41
1
10
-1.6729705146676093
20
2.9345978195250457
30
0
10
-1.6700720815382077
20
2.9358436836032218
30
0
10
-1.6643660195817991
20
2.9383428517739292
30
0
10
-1.656079354487519
20
2.9421139197103421
30
0
10
-1.6455753166944205
20
2.9471866895276837
30
0
10
-1.6333340109054997
20
2.9536069119347723
30
0
10
-1.6219197687234628
20
2.960121386378697
30
0
10
-1.6112125486629654
20
2.966758779835887
30
0
10
-1.6010012698862366
20
2.9735697864008248
30
0
10
-1.5910215859886261
20
2.9806144979994569
30
0
10
-1.5810483772906818
20
2.9879322284765224
30
0
10
-1.5709607664839533
20
2.9955218595015163
30
0
10
-1.5608454202057684
20
3.0033050529738348
30
0
10
-1.5509489774025149
20
3.01116164770196
30
0
10
-1.5415427250532103
20
3.019010492982849
30
0
10
-1.5328275791657155
20
3.0268650185700761
30
0
10
-1.5247903987196096
20
3.0349265090330606
30
0
10
-1.5172481330847232
20
3.0435189014289725
30
0
10
-1.5099810854789228
20
3.0529461641759434
30
0
10
-1.5028336959060602
20
3.0633791445903809
30
0
10
-1.4958404991232968
20
3.0747169249117325
30
0
10
-1.4891540198973428
20
3.0866625060212884
30
0
10
-1.4829527180829183
20
3.0988166882518193
30
0
10
-1.4773636894018707
20
3.110764539857338
30
0
10
-1.4723599691512306
20
3.1221670670126187
30
0
10
-1.4677840845008361
20
3.1328414475394033
30
0
10
-1.4634168489928163
20
3.1428453595681303
30
0
10
-1.4590309987769448
20
3.1525473929624415
30
0
10
-1.454451893779569
20
3.1627361996414418
30
0
10
-1.4496067701452224
20
3.1742674078765103
30
0
10
-1.4445753420374781
20
3.1876538515967479
30
0
10
-1.4396377852577262
20
3.2026858212719196
30
0
10
-1.4353304562914997
20
3.2180100450866491
30
0
10
-1.432193960942185
20
3.231821023410022
30
0
10
-1.4304814629665092
20
3.2426586985226717
30
0
10
-1.4299327492668741
20
3.2500507058026811
30
0
10
-1.4293912711400314
20
3.255513434287499
30
0
10
-1.4272595856065975
20
3.2616539701225928
30
0
10
-1.4223760064627431
20
3.2703302439303523
30
0
10
-1.4145689725899833
20
3.2815121360643373
30
0
10
-1.4042876445387349
20
3.2940986462940729
30
0
10
-1.3923399303584212
20
3.3065138470121336
30
0
10
-1.3795996555813468
20
3.3173572562402063
30
0
10
-1.3667018121270837
20
3.3261072440069248
30
0
10
-1.3540234423355091
20
3.332932160048077
30
0
10
-1.3417067564568235
20
3.3383570054997898
30
0
10
-1.3296707736490136
20
3.3430015502433608
30
0
10
-1.3176184251374381
20
3.3472429124560938
30
0
10
-1.3050758404134641
20
3.3510618267343957
30
0
10
-1.2915063821101513
20
3.3542501050889699
30
0
10
-1.2764084217895786
20
3.3565427300391981
30
0
10
-1.2594202401932548
20
3.3577808983953443
30
0
10
-1.2404203385153303
20
3.3580592166586412
30
0
10
-1.2194837159960625
20
3.3576483264769879
30
0
10
-1.1968394451184614
20
3.3569175021556528
30
0
10
-1.1728283408416851
20
3.3562589612031561
30
0
10
-1.1478598365845294
20
3.3560082021446327
30
0
10
-1.1223713309645988
20
3.356373677130962
30
0
10
-1.0967814329664785
20
3.357343328776758
30
0
10
-1.0714668337002931
20
3.3586794057166642
30
0
10
-1.046759855971177
20
3.3599900318453502
30
0
10
-1.0229400598938743
20
3.3607794166439722
30
0
10
-1.0002284523406093
20
3.3605059769775023
30
0
10
-0.97878002708194578
20
3.3586387024451199
30
0
10
-0.9586781162331699
20
3.3547103224728341
30
0
10
-0.93992503981368491
20
3.3483816244035611
30
0
10
-0.92244509230152294
20
3.3394641981674851
30
0
10
-0.90610176690696409
20
3.3278945703901903
30
0
10
-0.8907111184972385
20
3.313721140142881
30
0
10
-0.87605688061334563
20
3.297085957245764
30
0
10
-0.86190424858888171
20
3.278208963345099
30
0
10
-0.84801553278808295
20
3.2573708965996189
30
0
10
-0.83416049423667438
20
3.2348980875010152
30
0
10
-0.82011718110441179
20
3.2111497503754585
30
0
10
-0.80567485435606034
20
3.1865047999428846
30
0
10
-0.79063608892499904
20
3.1613488736117312
30
0
10
-0.77481923478004178
20
3.1360613010525675
30
0
10
-0.7580607530710104
20
3.1110020465903787
30
0
10
-0.74021759379627439
20
3.0864987648948197
30
0
10
-0.72116965268286981
20
3.0628335054318385
30
0
10
-0.70082200722704502
20
3.0402303024230815
30
0
10
-0.679101798654422
20
3.0188623997221131
30
0
10
-0.65595535718881159
20
2.9988586209897066
30
0
10
-0.6313452587133106
20
2.980310014526915
30
0
10
-0.60524743183744745
20
2.9632763387794725
30
0
10
-0.57764826199475883
20
2.9477925793729152
30
0
10
-0.55436302268324633
20
2.9366588531234359
30
0
10
-0.53622017361547758
20
2.9290157124682321
30
0
10
-0.52382326685349401
20
2.9242345052075689
30
0
10
-0.51754939495905727
20
2.9219224565400874
30
0
0
LWPOLYLINE
5
106
100
AcDbEntity
8
0
100
AcDbPolyline
90
22
70
1
43
0.0
10
-1.8345797377968998
20
3.5338667842175777
10
-0.45008368787645547
20
3.5338667842175768
42
-0.41421356237309453
10
-0.1750836878764549
20
3.2588667842175774
10
-0.17508368787645537
20
2.7808644308451522
42
0.092318102846777661
10
-0.16838032959907484
20
2.7448680887631967
10
0.048237232888888718
20
2.1834307329269755
42
-0.21023810534581283
10
0.022194662859960808
20
1.6202836200369113
10
-0.2362385059743681
20
1.0995234315684985
42
0.11567489358720046
10
-0.24874697648361244
20
1.0461795369999727
10
-0.24874697648361244
20
0.88721558692090607
42
-0.41421356237309542
10
-0.54874697648361248
20
0.58721558692090614
10
-1.7199473921200621
20
0.58721558692090614
42
-0.41421356237309559
10
-2.0699473921200622
20
0.93721558692090623
10
-2.0699473921200622
20
1.077412106581078
10
-2.2522594894193659
20
1.4413907221734377
42
-0.11661353322787479
10
-2.3528551847450272
20
1.8668461572083035
10
-2.3528551847450272
20
2.0282722044016466
10
-2.3070343244380425
20
2.2950082909808236
10
-2.3070343244380425
20
3.0120827429785479
10
-2.249102304594234
20
3.0120827429785479
42
0.41553528089751474
10
-2.0341044916551763
20
3.2280525014133006
10
-2.034577703321605
20
3.33296468334804
42
-0.41553528089751413
0
ENDSEC
0
SECTION
2
OBJECTS
0
DICTIONARY
5
C
100
AcDbDictionary
3
ACAD_GROUP
350
D
3
ACAD_MLINESTYLE
350
17
0
DICTIONARY
5
D
100
AcDbDictionary
0
DICTIONARY
5
1A
330
C
100
AcDbDictionary
0
DICTIONARY
5
17
100
AcDbDictionary
0
ENDSEC
0
EOF
