0
SECTION
2
HEADER
9
$INSUNITS
70
1
9
$ACADVER
1
AC1014
9
$HANDSEED
5
FFFF
0
ENDSEC
0
SECTION
2
TABLES
0
TABLE
2
VPORT
5
8
100
AcDbSymbolTable
0
ENDTAB
0
TABLE
2
LTYPE
5
5
100
AcDbSymbolTable
0
LTYPE
5
14
100
AcDbSymbolTableRecord
100
AcDbLinetypeTableRecord
2
BYBLOCK
70
0
0
LTYPE
5
15
100
AcDbSymbolTableRecord
100
AcDbLinetypeTableRecord
2
BYLAYER
70
0
0
ENDTAB
0
TABLE
2
LAYER
5
2
100
AcDbSymbolTable
70
2
0
LAYER
5
50
100
AcDbSymbolTableRecord
100
AcDbLayerTableRecord
2
0
70
0
6
CONTINUOUS
0
ENDTAB
0
TABLE
2
STYLE
5
3
100
AcDbSymbolTable
70
1
0
STYLE
5
11
100
AcDbSymbolTableRecord
100
AcDbTextStyleTableRecord
2
STANDARD
70
0
0
ENDTAB
0
TABLE
2
VIEW
5
6
100
AcDbSymbolTable
70
0
0
ENDTAB
0
TABLE
2
UCS
5
7
100
AcDbSymbolTable
70
0
0
ENDTAB
0
TABLE
2
APPID
5
9
100
AcDbSymbolTable
70
2
0
APPID
5
12
100
AcDbSymbolTableRecord
100
AcDbRegAppTableRecord
2
ACAD
70
0
0
ENDTAB
0
TABLE
2
DIMSTYLE
5
A
100
AcDbSymbolTable
70
1
0
ENDTAB
0
TABLE
2
BLOCK_RECORD
5
1
100
AcDbSymbolTable
70
1
0
BLOCK_RECORD
5
1F
100
AcDbSymbolTableRecord
100
AcDbBlockTableRecord
2
*MODEL_SPACE
0
BLOCK_RECORD
5
1B
100
AcDbSymbolTableRecord
100
AcDbBlockTableRecord
2
*PAPER_SPACE
0
ENDTAB
0
ENDSEC
0
SECTION
2
BLOCKS
0
BLOCK
5
20
100
AcDbEntity
100
AcDbBlockBegin
2
*MODEL_SPACE
0
ENDBLK
5
21
100
AcDbEntity
100
AcDbBlockEnd
0
BLOCK
5
1C
100
AcDbEntity
100
AcDbBlockBegin
2
*PAPER_SPACE
0
ENDBLK
5
1D
100
AcDbEntity
100
AcDbBlockEnd
0
ENDSEC
0
SECTION
2
ENTITIES
0
LWPOLYLINE
5
100
100
AcDbEntity
8
0
100
AcDbPolyline
90
8
70
1
43
0.0
10
0.99999999999999956
20
3.4967654318902565e-16
10
21.499999999999996
20
3.4967654318902565e-16
42
0.41421356237309503
10
22.499999999999996
20
1.0000000000000002
10
22.499999999999996
20
5.75
42
0.41421356237309748
10
21.499999999999996
20
6.7499999999999964
10
0.99999999999999956
20
6.7499999999999991
42
0.41421356237309503
10
-3.4967654318902565e-16
20
5.75
10
-3.4967654318902565e-16
20
1.0000000000000002
42
0.41421356237309503
0
LINE
5
101
100
AcDbEntity
8
0
100
AcDbLine
10
22.499999999999996
20
3.3749999999999991
30
0
11
0
21
3.3749999999999973
31
0
0
LINE
5
102
100
AcDbEntity
8
0
100
AcDbLine
10
11.249999999999998
20
6.7499999999999947
30
0
11
11.249999999999998
21
0
31
0
0
CIRCLE
5
103
100
AcDbEntity
8
0
100
AcDbCircle
10
2.2499999999999996
20
6.2499999999999964
30
0
40
0.19
210
0
220
0
230
1
0
LWPOLYLINE
5
104
100
AcDbEntity
8
0
100
AcDbPolyline
90
8
70
1
43
0.0
10
9.9999999999999982
20
5.8749999999999982
10
12.500000000000002
20
5.8749999999999982
42
-0.41421356237309503
10
13.499999999999998
20
4.8750000000000009
10
13.499999999999998
20
1.874999999999994
42
-0.4142135623730952
10
12.500000000000004
20
0.87499999999999845
10
9.9999999999999982
20
0.87499999999999856
42
-0.41421356237309498
10
8.9999999999999982
20
1.8749999999999978
10
8.9999999999999982
20
4.8749999999999982
42
-0.41421356237309503
0
LWPOLYLINE
5
105
100
AcDbEntity
8
0
100
AcDbPolyline
90
8
70
1
43
0.0
10
15
20
5.8749999999999982
10
20.5
20
5.8749999999999982
42
-0.41421356237309503
10
21.499999999999996
20
4.8750000000000018
10
21.499999999999996
20
1.8749999999999933
42
-0.41421356237309503
10
20.500000000000004
20
0.87499999999999789
10
14.999999999999996
20
0.87499999999999789
42
-0.41421356237309503
10
14.000000000000002
20
1.8749999999999918
10
14.000000000000002
20
4.8750000000000027
42
-0.41421356237309503
0
LINE
5
106
100
AcDbEntity
8
0
100
AcDbLine
10
17.75
20
5.8749999999999982
30
0
11
17.75
21
0.87499999999999856
31
0
0
LWPOLYLINE
5
107
100
AcDbEntity
8
0
100
AcDbPolyline
90
8
70
1
43
0.0
10
1.9999999999999971
20
5.8749994010543212
10
7.5000000000000027
20
5.8749994010543212
42
-0.41421356237309503
10
8.5
20
4.8749994010543238
10
8.5
20
1.8750005989456713
42
-0.41421356237309503
10
7.5000000000000027
20
0.87500059894567483
10
1.9999999999999991
20
0.87500059894567417
42
-0.41421356237309503
10
0.99999999999999956
20
1.8750005989456737
10
0.99999999999999956
20
4.8749994010543238
42
-0.41421356237309503
0
LINE
5
108
100
AcDbEntity
8
0
100
AcDbLine
10
4.4822734061069953
20
5.8749994010543221
30
0
11
4.4857344626081392
21
0.87500059894567961
31
0
0
LINE
5
109
100
AcDbEntity
8
0
100
AcDbLine
10
2.2499999999999996
20
6.2499999999999964
30
0
11
20.375
21
6.2499999999999964
31
0
0
CIRCLE
5
110
100
AcDbEntity
8
0
100
AcDbCircle
10
20.375
20
6.2499999999999964
30
0
40
0.19000000000000034
210
0
220
0
230
1
0
LINE
5
111
100
AcDbEntity
8
0
100
AcDbLine
10
2.2499999999999996
20
0.50000000000000033
30
0
11
20.374999999999996
21
0.49999999999999079
31
0
0
CIRCLE
5
112
100
AcDbEntity
8
0
100
AcDbCircle
10
2.2499999999999996
20
0.50000000000000033
30
0
40
0.19
210
0
220
0
230
1
0
CIRCLE
5
113
100
AcDbEntity
8
0
100
AcDbCircle
10
20.374999999999996
20
0.49999999999999079
30
0
40
0.19
210
0
220
0
230
1
0
CIRCLE
5
114
100
AcDbEntity
8
0
100
AcDbCircle
10
7.1249999999999991
20
0.50000000000000011
30
0
40
0.17500000000000021
210
0
220
0
230
1
0
CIRCLE
5
115
100
AcDbEntity
8
0
100
AcDbCircle
10
15.499999999999998
20
0.49999999999999212
30
0
40
0.18999999999999997
210
0
220
0
230
1
0
CIRCLE
5
116
100
AcDbEntity
8
0
100
AcDbCircle
10
15.5
20
6.2499999999999964
30
0
40
0.1900000000000002
210
0
220
0
230
1
0
CIRCLE
5
117
100
AcDbEntity
8
0
100
AcDbCircle
10
7.1249999999999991
20
6.2499999999999964
30
0
40
0.19000000000000017
210
0
220
0
230
1
0
ENDSEC
0
SECTION
2
OBJECTS
0
DICTIONARY
5
C
100
AcDbDictionary
3
ACAD_GROUP
350
D
3
ACAD_MLINESTYLE
350
17
0
DICTIONARY
5
D
100
AcDbDictionary
0
DICTIONARY
5
1A
330
C
100
AcDbDictionary
0
DICTIONARY
5
17
100
AcDbDictionary
0
ENDSEC
0
EOF
