0
SECTION
2
HEADER
9
$INSUNITS
70
1
9
$ACADVER
1
AC1014
9
$HANDSEED
5
FFFF
0
ENDSEC
0
SECTION
2
TABLES
0
TABLE
2
VPORT
5
8
100
AcDbSymbolTable
0
ENDTAB
0
TABLE
2
LTYPE
5
5
100
AcDbSymbolTable
0
LTYPE
5
14
100
AcDbSymbolTableRecord
100
AcDbLinetypeTableRecord
2
BYBLOCK
70
0
0
LTYPE
5
15
100
AcDbSymbolTableRecord
100
AcDbLinetypeTableRecord
2
BYLAYER
70
0
0
ENDTAB
0
TABLE
2
LAYER
5
2
100
AcDbSymbolTable
70
2
0
LAYER
5
50
100
AcDbSymbolTableRecord
100
AcDbLayerTableRecord
2
0
70
0
6
CONTINUOUS
0
ENDTAB
0
TABLE
2
STYLE
5
3
100
AcDbSymbolTable
70
1
0
STYLE
5
11
100
AcDbSymbolTableRecord
100
AcDbTextStyleTableRecord
2
STANDARD
70
0
0
ENDTAB
0
TABLE
2
VIEW
5
6
100
AcDbSymbolTable
70
0
0
ENDTAB
0
TABLE
2
UCS
5
7
100
AcDbSymbolTable
70
0
0
ENDTAB
0
TABLE
2
APPID
5
9
100
AcDbSymbolTable
70
2
0
APPID
5
12
100
AcDbSymbolTableRecord
100
AcDbRegAppTableRecord
2
ACAD
70
0
0
ENDTAB
0
TABLE
2
DIMSTYLE
5
A
100
AcDbSymbolTable
70
1
0
ENDTAB
0
TABLE
2
BLOCK_RECORD
5
1
100
AcDbSymbolTable
70
1
0
BLOCK_RECORD
5
1F
100
AcDbSymbolTableRecord
100
AcDbBlockTableRecord
2
*MODEL_SPACE
0
BLOCK_RECORD
5
1B
100
AcDbSymbolTableRecord
100
AcDbBlockTableRecord
2
*PAPER_SPACE
0
ENDTAB
0
ENDSEC
0
SECTION
2
BLOCKS
0
BLOCK
5
20
100
AcDbEntity
100
AcDbBlockBegin
2
*MODEL_SPACE
0
ENDBLK
5
21
100
AcDbEntity
100
AcDbBlockEnd
0
BLOCK
5
1C
100
AcDbEntity
100
AcDbBlockBegin
2
*PAPER_SPACE
0
ENDBLK
5
1D
100
AcDbEntity
100
AcDbBlockEnd
0
ENDSEC
0
SECTION
2
ENTITIES
0
CIRCLE
5
100
100
AcDbEntity
8
0
100
AcDbCircle
10
-1.2802773236078553
20
-0.23459677451466529
30
0
40
0.19750000000000001
210
0
220
0
230
1
0
CIRCLE
5
101
100
AcDbEntity
8
0
100
AcDbCircle
10
1.6096231424406735
20
-0.26886342038787697
30
0
40
0.19750000000000004
210
0
220
0
230
1
0
LWPOLYLINE
5
102
100
AcDbEntity
8
0
100
AcDbPolyline
90
14
70
1
43
0.0
10
-0.54205234666429969
20
-0.81597879767654435
10
0.94116876220200685
20
-0.81597879767654435
42
0.27551562277473268
10
1.1831060210445172
20
-0.67171273658978958
10
1.2264292941227488
20
-0.5915383456109613
10
1.2082966978682559
20
-0.018001461625573582
10
1.0981157267817201
20
0.21571574977010816
10
0.85104324616342808
20
0.46612704769405311
10
0.51382269829251548
20
0.59634092261450433
10
0.079776448557678126
20
0.59634092261450433
10
-0.18535352027869195
20
0.56044151544658827
42
0.1198023029381374
10
-0.68027992892157996
20
0.36673762833799151
42
0.13046987441983024
10
-0.86030583468887811
20
-0.058559575415210334
10
-0.90713953727684704
20
-0.38862566984470726
42
0.19301689948958276
10
-0.82739272107830208
20
-0.71394556437887868
42
0.17341534662003633
0
SPLINE
5
103
100
AcDbEntity
8
0
100
AcDbSpline
70
6
71
5
72
466
73
460
74
0
42
0.000000001
43
0.0000000001
44
0.0000000001
40
0
40
0
40
0
40
0
40
0
40
0
40
0.0021978021978021978
40
0.0043956043956043956
40
0.0065934065934065934
40
0.0087912087912087912
40
0.010989010989010988
40
0.013186813186813185
40
0.015384615384615382
40
0.017582417582417579
40
0.019780219780219776
40
0.021978021978021973
40
0.02417582417582417
40
0.026373626373626367
40
0.028571428571428564
40
0.030769230769230761
40
0.032967032967032961
40
0.035164835164835158
40
0.037362637362637355
40
0.039560439560439552
40
0.041758241758241749
40
0.043956043956043946
40
0.046153846153846143
40
0.048351648351648339
40
0.050549450549450536
40
0.052747252747252733
40
0.05494505494505493
40
0.057142857142857127
40
0.059340659340659324
40
0.061538461538461521
40
0.063736263736263718
40
0.065934065934065922
40
0.068131868131868126
40
0.07032967032967033
40
0.072527472527472533
40
0.074725274725274737
40
0.076923076923076941
40
0.079120879120879145
40
0.081318681318681349
40
0.083516483516483553
40
0.085714285714285757
40
0.087912087912087961
40
0.090109890109890164
40
0.092307692307692368
40
0.094505494505494572
40
0.096703296703296776
40
0.09890109890109898
40
0.10109890109890118
40
0.10329670329670339
40
0.10549450549450559
40
0.1076923076923078
40
0.10989010989011
40
0.1120879120879122
40
0.11428571428571441
40
0.11648351648351661
40
0.11868131868131881
40
0.12087912087912102
40
0.12307692307692322
40
0.12527472527472541
40
0.1274725274725276
40
0.12967032967032979
40
0.13186813186813198
40
0.13406593406593417
40
0.13626373626373636
40
0.13846153846153855
40
0.14065934065934074
40
0.14285714285714293
40
0.14505494505494512
40
0.14725274725274731
40
0.1494505494505495
40
0.15164835164835169
40
0.15384615384615388
40
0.15604395604395607
40
0.15824175824175826
40
0.16043956043956045
40
0.16263736263736264
40
0.16483516483516483
40
0.16703296703296702
40
0.16923076923076921
40
0.1714285714285714
40
0.17362637362637359
40
0.17582417582417578
40
0.17802197802197797
40
0.18021978021978016
40
0.18241758241758235
40
0.18461538461538454
40
0.18681318681318673
40
0.18901098901098892
40
0.19120879120879111
40
0.1934065934065933
40
0.19560439560439549
40
0.19780219780219768
40
0.19999999999999987
40
0.20219780219780206
40
0.20439560439560425
40
0.20659340659340644
40
0.20879120879120863
40
0.21098901098901082
40
0.21318681318681301
40
0.2153846153846152
40
0.21758241758241739
40
0.21978021978021958
40
0.22197802197802177
40
0.22417582417582396
40
0.22637362637362615
40
0.22857142857142834
40
0.23076923076923053
40
0.23296703296703272
40
0.23516483516483491
40
0.2373626373626371
40
0.23956043956043929
40
0.24175824175824148
40
0.24395604395604367
40
0.24615384615384586
40
0.24835164835164805
40
0.25054945054945027
40
0.25274725274725246
40
0.25494505494505465
40
0.25714285714285684
40
0.25934065934065903
40
0.26153846153846122
40
0.26373626373626341
40
0.2659340659340656
40
0.26813186813186779
40
0.27032967032966998
40
0.27252747252747217
40
0.27472527472527436
40
0.27692307692307655
40
0.27912087912087874
40
0.28131868131868093
40
0.28351648351648312
40
0.28571428571428531
40
0.2879120879120875
40
0.29010989010988969
40
0.29230769230769188
40
0.29450549450549407
40
0.29670329670329626
40
0.29890109890109845
40
0.30109890109890064
40
0.30329670329670283
40
0.30549450549450502
40
0.30769230769230721
40
0.3098901098901094
40
0.31208791208791159
40
0.31428571428571378
40
0.31648351648351597
40
0.31868131868131816
40
0.32087912087912035
40
0.32307692307692254
40
0.32527472527472473
40
0.32747252747252692
40
0.32967032967032911
40
0.3318681318681313
40
0.33406593406593349
40
0.33626373626373568
40
0.33846153846153787
40
0.34065934065934006
40
0.34285714285714225
40
0.34505494505494444
40
0.34725274725274663
40
0.34945054945054882
40
0.35164835164835101
40
0.3538461538461532
40
0.35604395604395539
40
0.35824175824175758
40
0.36043956043955977
40
0.36263736263736196
40
0.36483516483516415
40
0.36703296703296634
40
0.36923076923076853
40
0.37142857142857072
40
0.37362637362637291
40
0.3758241758241751
40
0.37802197802197729
40
0.38021978021977948
40
0.38241758241758167
40
0.38461538461538386
40
0.38681318681318605
40
0.38901098901098824
40
0.39120879120879043
40
0.39340659340659262
40
0.39560439560439481
40
0.397802197802197
40
0.39999999999999919
40
0.40219780219780138
40
0.40439560439560357
40
0.40659340659340576
40
0.40879120879120795
40
0.41098901098901014
40
0.41318681318681233
40
0.41538461538461452
40
0.41758241758241671
40
0.4197802197802189
40
0.42197802197802109
40
0.42417582417582328
40
0.42637362637362547
40
0.42857142857142766
40
0.43076923076922985
40
0.43296703296703204
40
0.43516483516483423
40
0.43736263736263642
40
0.43956043956043861
40
0.4417582417582408
40
0.44395604395604299
40
0.44615384615384518
40
0.44835164835164737
40
0.45054945054944956
40
0.45274725274725175
40
0.45494505494505394
40
0.45714285714285613
40
0.45934065934065832
40
0.46153846153846051
40
0.4637362637362627
40
0.46593406593406489
40
0.46813186813186708
40
0.47032967032966927
40
0.47252747252747146
40
0.47472527472527365
40
0.47692307692307584
40
0.47912087912087803
40
0.48131868131868022
40
0.48351648351648241
40
0.4857142857142846
40
0.48791208791208679
40
0.49010989010988898
40
0.49230769230769117
40
0.49450549450549336
40
0.49670329670329555
40
0.49890109890109774
40
0.50109890109889998
40
0.50329670329670217
40
0.50549450549450436
40
0.50769230769230655
40
0.50989010989010874
40
0.51208791208791093
40
0.51428571428571312
40
0.51648351648351531
40
0.5186813186813175
40
0.52087912087911969
40
0.52307692307692188
40
0.52527472527472407
40
0.52747252747252626
40
0.52967032967032845
40
0.53186813186813064
40
0.53406593406593283
40
0.53626373626373502
40
0.53846153846153721
40
0.5406593406593394
40
0.54285714285714159
40
0.54505494505494378
40
0.54725274725274597
40
0.54945054945054816
40
0.55164835164835035
40
0.55384615384615254
40
0.55604395604395473
40
0.55824175824175692
40
0.56043956043955911
40
0.5626373626373613
40
0.56483516483516349
40
0.56703296703296568
40
0.56923076923076787
40
0.57142857142857006
40
0.57362637362637225
40
0.57582417582417444
40
0.57802197802197663
40
0.58021978021977882
40
0.58241758241758101
40
0.5846153846153832
40
0.58681318681318539
40
0.58901098901098758
40
0.59120879120878977
40
0.59340659340659196
40
0.59560439560439415
40
0.59780219780219634
40
0.59999999999999853
40
0.60219780219780072
40
0.60439560439560291
40
0.6065934065934051
40
0.60879120879120729
40
0.61098901098900948
40
0.61318681318681167
40
0.61538461538461386
40
0.61758241758241605
40
0.61978021978021824
40
0.62197802197802043
40
0.62417582417582262
40
0.62637362637362481
40
0.628571428571427
40
0.63076923076922919
40
0.63296703296703138
40
0.63516483516483357
40
0.63736263736263576
40
0.63956043956043795
40
0.64175824175824014
40
0.64395604395604233
40
0.64615384615384452
40
0.64835164835164671
40
0.6505494505494489
40
0.65274725274725109
40
0.65494505494505328
40
0.65714285714285547
40
0.65934065934065766
40
0.66153846153845985
40
0.66373626373626204
40
0.66593406593406423
40
0.66813186813186642
40
0.67032967032966861
40
0.6725274725274708
40
0.67472527472527299
40
0.67692307692307518
40
0.67912087912087737
40
0.68131868131867956
40
0.68351648351648175
40
0.68571428571428394
40
0.68791208791208613
40
0.69010989010988832
40
0.69230769230769051
40
0.6945054945054927
40
0.69670329670329489
40
0.69890109890109708
40
0.70109890109889927
40
0.70329670329670146
40
0.70549450549450365
40
0.70769230769230584
40
0.70989010989010803
40
0.71208791208791022
40
0.71428571428571241
40
0.7164835164835146
40
0.71868131868131679
40
0.72087912087911898
40
0.72307692307692117
40
0.72527472527472336
40
0.72747252747252555
40
0.72967032967032774
40
0.73186813186812993
40
0.73406593406593212
40
0.73626373626373431
40
0.7384615384615365
40
0.74065934065933869
40
0.74285714285714088
40
0.74505494505494307
40
0.74725274725274526
40
0.74945054945054745
40
0.75164835164834964
40
0.75384615384615183
40
0.75604395604395402
40
0.75824175824175621
40
0.7604395604395584
40
0.76263736263736059
40
0.76483516483516278
40
0.76703296703296497
40
0.76923076923076716
40
0.77142857142856935
40
0.77362637362637154
40
0.77582417582417373
40
0.77802197802197592
40
0.78021978021977811
40
0.7824175824175803
40
0.78461538461538249
40
0.78681318681318468
40
0.78901098901098687
40
0.79120879120878906
40
0.79340659340659125
40
0.79560439560439344
40
0.79780219780219563
40
0.79999999999999782
40
0.80219780219780001
40
0.8043956043956022
40
0.80659340659340439
40
0.80879120879120658
40
0.81098901098900877
40
0.81318681318681096
40
0.81538461538461315
40
0.81758241758241534
40
0.81978021978021753
40
0.82197802197801972
40
0.82417582417582191
40
0.8263736263736241
40
0.82857142857142629
40
0.83076923076922848
40
0.83296703296703067
40
0.83516483516483286
40
0.83736263736263505
40
0.83956043956043724
40
0.84175824175823943
40
0.84395604395604162
40
0.84615384615384381
40
0.848351648351646
40
0.85054945054944819
40
0.85274725274725038
40
0.85494505494505257
40
0.85714285714285476
40
0.85934065934065695
40
0.86153846153845914
40
0.86373626373626133
40
0.86593406593406352
40
0.86813186813186571
40
0.8703296703296679
40
0.87252747252747009
40
0.87472527472527228
40
0.87692307692307447
40
0.87912087912087666
40
0.88131868131867885
40
0.88351648351648104
40
0.88571428571428323
40
0.88791208791208542
40
0.89010989010988761
40
0.8923076923076898
40
0.89450549450549199
40
0.89670329670329418
40
0.89890109890109637
40
0.90109890109889856
40
0.90329670329670075
40
0.90549450549450294
40
0.90769230769230513
40
0.90989010989010732
40
0.91208791208790951
40
0.9142857142857117
40
0.91648351648351389
40
0.91868131868131608
40
0.92087912087911827
40
0.92307692307692046
40
0.92527472527472265
40
0.92747252747252484
40
0.92967032967032703
40
0.93186813186812922
40
0.93406593406593141
40
0.9362637362637336
40
0.93846153846153579
40
0.94065934065933798
40
0.94285714285714017
40
0.94505494505494236
40
0.94725274725274455
40
0.94945054945054674
40
0.95164835164834893
40
0.95384615384615112
40
0.95604395604395331
40
0.9582417582417555
40
0.96043956043955769
40
0.96263736263735988
40
0.96483516483516207
40
0.96703296703296426
40
0.96923076923076645
40
0.97142857142856864
40
0.97362637362637083
40
0.97582417582417302
40
0.97802197802197521
40
0.9802197802197774
40
0.98241758241757959
40
0.98461538461538178
40
0.98681318681318397
40
0.98901098901098616
40
0.99120879120878835
40
0.99340659340659054
40
0.99560439560439273
40
0.99780219780219492
40
1
40
1
40
1
40
1
40
1
40
1
41
1
41
1
41
1
41
1
41
1
41
1
41
1
41
1
41
1
41
1
41
1
41
1
41
1
41
1
41
1
41
1
41
1
41
1
41
1
41
1
41
1
41
1
41
1
41
1
41
1
41
1
41
1
41
1
41
1
41
1
41
1
41
1
41
1
41
1
41
1
41
1
41
1
41
1
41
1
41
1
41
1
41
1
41
1
41
1
41
1
41
1
41
1
41
1
41
1
41
1
41
1
41
1
41
1
41
1
41
1
41
1
41
1
41
1
41
1
41
1
41
1
41
1
41
1
41
1
41
1
41
1
41
1
41
1
41
1
41
1
41
1
41
1
41
1
41
1
41
1
41
1
41
1
41
1
41
1
41
1
41
1
41
1
41
1
41
1
41
1
41
1
41
1
41
1
41
1
41
1
41
1
41
1
41
1
41
1
41
1
41
1
41
1
41
1
41
1
41
1
41
1
41
1
41
1
41
1
41
1
41
1
41
1
41
1
41
1
41
1
41
1
41
1
41
1
41
1
41
1
41
1
41
1
41
1
41
1
41
1
41
1
41
1
41
1
41
1
41
1
41
1
41
1
41
1
41
1
41
1
41
1
41
1
41
1
41
1
41
1
41
1
41
1
41
1
41
1
41
1
41
1
41
1
41
1
41
1
41
1
41
1
41
1
41
1
41
1
41
1
41
1
41
1
41
1
41
1
41
1
41
1
41
1
41
1
41
1
41
1
41
1
41
1
41
1
41
1
41
1
41
1
41
1
41
1
41
1
41
1
41
1
41
1
41
1
41
1
41
1
41
1
41
1
41
1
41
1
41
1
41
1
41
1
41
1
41
1
41
1
41
1
41
1
41
1
41
1
41
1
41
1
41
1
41
1
41
1
41
1
41
1
41
1
41
1
41
1
41
1
41
1
41
1
41
1
41
1
41
1
41
1
41
1
41
1
41
1
41
1
41
1
41
1
41
1
41
1
41
1
41
1
41
1
41
1
41
1
41
1
41
1
41
1
41
1
41
1
41
1
41
1
41
1
41
1
41
1
41
1
41
1
41
1
41
1
41
1
41
1
41
1
41
1
41
1
41
1
41
1
41
1
41
1
41
1
41
1
41
1
41
1
41
1
41
1
41
1
41
1
41
1
41
1
41
1
41
1
41
1
41
1
41
1
41
1
41
1
41
1
41
1
41
1
41
1
41
1
41
1
41
1
41
1
41
1
41
1
41
1
41
1
41
1
41
1
41
1
41
1
41
1
41
1
41
1
41
1
41
1
41
1
41
1
41
1
41
1
41
1
41
1
41
1
41
1
41
1
41
1
41
1
41
1
41
1
41
1
41
1
41
1
41
1
41
1
41
1
41
1
41
1
41
1
41
1
41
1
41
1
41
1
41
1
41
1
41
1
41
1
41
1
41
1
41
1
41
1
41
1
41
1
41
1
41
1
41
1
41
1
41
1
41
1
41
1
41
1
41
1
41
1
41
1
41
1
41
1
41
1
41
1
41
1
41
1
41
1
41
1
41
1
41
1
41
1
41
1
41
1
41
1
41
1
41
1
41
1
41
1
41
1
41
1
41
1
41
1
41
1
41
1
41
1
41
1
41
1
41
1
41
1
41
1
41
1
41
1
41
1
41
1
41
1
41
1
41
1
41
1
41
1
41
1
41
1
41
1
41
1
41
1
41
1
41
1
41
1
41
1
41
1
41
1
41
1
41
1
41
1
41
1
41
1
41
1
41
1
41
1
41
1
41
1
41
1
41
1
41
1
41
1
41
1
41
1
41
1
41
1
41
1
41
1
41
1
41
1
41
1
41
1
41
1
41
1
41
1
41
1
41
1
41
1
41
1
41
1
41
1
41
1
41
1
41
1
41
1
41
1
41
1
41
1
41
1
41
1
41
1
41
1
41
1
41
1
41
1
41
1
41
1
41
1
41
1
41
1
41
1
41
1
41
1
41
1
41
1
41
1
41
1
41
1
41
1
41
1
41
1
41
1
41
1
41
1
41
1
41
1
41
1
41
1
41
1
41
1
41
1
41
1
41
1
41
1
41
1
41
1
41
1
41
1
41
1
41
1
41
1
10
0.22565068878201036
20
-1.2785067696491721
30
0
10
0.23235714645884162
20
-1.2784872069248019
30
0
10
0.24625805674611076
20
-1.2784364214929176
30
0
10
0.26859434690032635
20
-1.2783214634312723
30
0
10
0.30133242352061274
20
-1.2780777446778029
30
0
10
0.34674248934119789
20
-1.2776003958284259
30
0
10
0.39587433105842873
20
-1.276937273460242
30
0
10
0.44771651949766683
20
-1.2760828470572334
30
0
10
0.50109203504593702
20
-1.2750377805278073
30
0
10
0.55473843649361665
20
-1.2738075841492542
30
0
10
0.60738796839332088
20
-1.2724012659253594
30
0
10
0.65784780383189756
20
-1.2708299849902298
30
0
10
0.70507997528448174
20
-1.2691057003602151
30
0
10
0.7482820373182798
20
-1.2672398306918615
30
0
10
0.78696604074310428
20
-1.2652418884426664
30
0
10
0.82104152101106265
20
-1.2631181743916637
30
0
10
0.85088751102069038
20
-1.2608703092211457
30
0
10
0.87722120922236646
20
-1.2584910670675102
30
0
10
0.90097531720105528
20
-1.2559602431978709
30
0
10
0.92317369245709446
20
-1.2532406893107264
30
0
10
0.94480415475876744
20
-1.2502738672291454
30
0
10
0.96670080905193123
20
-1.2469765623245959
30
0
10
0.98940219464343837
20
-1.2432347894895965
30
0
10
1.0130861427899174
20
-1.2389065239297417
30
0
10
1.0376734136270402
20
-1.2338437485007474
30
0
10
1.0628970463396046
20
-1.2279106533025475
30
0
10
1.0883849399531731
20
-1.2210031628067821
30
0
10
1.1137377702831053
20
-1.2130683706414307
30
0
10
1.1386065750676531
20
-1.2041228990067279
30
0
10
1.1627767698575882
20
-1.1942747342412341
30
0
10
1.1861513343146026
20
-1.1836960544816952
30
0
10
1.2087242374254905
20
-1.1725911197674268
30
0
10
1.2305576165077987
20
-1.1611665875171522
30
0
10
1.2517568487936841
20
-1.1495993415294821
30
0
10
1.2724477522377877
20
-1.1380087933766676
30
0
10
1.2927498700687294
20
-1.1264188919854312
30
0
10
1.3127626466979427
20
-1.1147559058771814
30
0
10
1.3325670556798639
20
-1.1028902923591752
30
0
10
1.3522234197063445
20
-1.0906666361139969
30
0
10
1.3717704912077986
20
-1.0779398701791638
30
0
10
1.3912246520714766
20
-1.0646054899441846
30
0
10
1.410577438716218
20
-1.050640515002123
30
0
10
1.4297999963035228
20
-1.0361086899523526
30
0
10
1.4488558036936154
20
-1.0211252525770274
30
0
10
1.4677109796101198
20
-1.0058326179219781
30
0
10
1.4863461133785214
20
-0.99037079191454869
30
0
10
1.5047661997544528
20
-0.97485195282713355
30
0
10
1.5230143893902863
20
-0.95932862915843176
30
0
10
1.541174414686757
20
-0.94377950891955087
30
0
10
1.5593440041900448
20
-0.92813962808707873
30
0
10
1.5776139250834782
20
-0.91232206743584909
30
0
10
1.5960445262933505
20
-0.89624322596968165
30
0
10
1.6146439612682144
20
-0.8798460817310565
30
0
10
1.633344231587746
20
-0.8631254712889227
30
0
10
1.6519823015507622
20
-0.84614922475313858
30
0
10
1.6703470063898718
20
-0.82902701370344445
30
0
10
1.6882225389091847
20
-0.81188196792961342
30
0
10
1.7054321469238811
20
-0.79482196838892083
30
0
10
1.7218841995929963
20
-0.77790943974784599
30
0
10
1.7376114785878811
20
-0.76113562453698835
30
0
10
1.7528283294771485
20
-0.74438296826478412
30
0
10
1.7678765753742449
20
-0.72746171962154949
30
0
10
1.7831381657401679
20
-0.71016885754811487
30
0
10
1.7989607978222011
20
-0.69233809126902168
30
0
10
1.8155740944547665
20
-0.67389678190328761
30
0
10
1.8330192039127098
20
-0.65491245983571766
30
0
10
1.8510484933317402
20
-0.63566297045407849
30
0
10
1.8691884590325567
20
-0.61657694474467917
30
0
10
1.8868607536628819
20
-0.59812770313864383
30
0
10
1.9034812764085749
20
-0.58074533733370559
30
0
10
1.9185746613383436
20
-0.56471486953044692
30
0
10
1.931867671471156
20
-0.55009508499588422
30
0
10
1.9434272573950062
20
-0.53659235539363792
30
0
10
1.9536462334943068
20
-0.52358895740127109
30
0
10
1.9630442591293313
20
-0.51035887261288104
30
0
10
1.9721163051022685
20
-0.49623537307786059
30
0
10
1.9811612098355773
20
-0.48079883142623503
30
0
10
1.9901204101917369
20
-0.46405416820040474
30
0
10
1.9987038779587711
20
-0.44629979814336734
30
0
10
2.0065172789187429
20
-0.42799578667433813
30
0
10
2.0131858456998564
20
-0.40963448715022083
30
0
10
2.0184859793026031
20
-0.39160528576449238
30
0
10
2.0224555277195808
20
-0.37407575923499831
30
0
10
2.0252893172100723
20
-0.35704640028757428
30
0
10
2.027246073133131
20
-0.34039263669633441
30
0
10
2.0285605550497787
20
-0.32391103973995811
30
0
10
2.0293302309990837
20
-0.30736530171187126
30
0
10
2.0295115999410274
20
-0.29052598852553424
30
0
10
2.0290083513683044
20
-0.27320526837909687
30
0
10
2.02773043514736
20
-0.25529142500769775
30
0
10
2.0256712642220518
20
-0.23678728422959539
30
0
10
2.0229592381529069
20
-0.21783585787774598
30
0
10
2.0197755470036833
20
-0.19866117629742219
30
0
10
2.016282989820986
20
-0.17951689911988156
30
0
10
2.0125559871679135
20
-0.16063465064311153
30
0
10
2.0084974192017131
20
-0.14216608643017539
30
0
10
2.0037997068822921
20
-0.12414717074256743
30
0
10
1.9980708063619115
20
-0.10654728146826294
30
0
10
1.9909403710740201
20
-0.089306912413640208
30
0
10
1.9821618774710026
20
-0.072376228065223217
30
0
10
1.9717447639589858
20
-0.05576191669380115
30
0
10
1.9599741206015819
20
-0.039539968005126956
30
0
10
1.947258491810969
20
-0.023815366839960765
30
0
10
1.9340136702533668
20
-0.0086932569356920827
30
0
10
1.9205423827347334
20
0.0057520035306717074
30
0
10
1.9068908659606028
20
0.019512907912217308
30
0
10
1.892796103471692
20
0.032663108824403923
30
0
10
1.8778567046916366
20
0.045317405473011767
30
0
10
1.8616624855291777
20
0.057601840929976146
30
0
10
1.8439344235760757
20
0.0696211242266567
30
0
10
1.8246744585000729
20
0.081424018084489
30
0
10
1.8042682589838177
20
0.092979114022314999
30
0
10
1.783322444173558
20
0.10420925560929323
30
0
10
1.7625386449643465
20
0.11501809204830252
30
0
10
1.7425677215780779
20
0.12532034617803195
30
0
10
1.7238850994101635
20
0.13506899539066886
30
0
10
1.7066264374279316
20
0.14428742188347157
30
0
10
1.6905408507496382
20
0.15308730265977899
30
0
10
1.6751905861841114
20
0.16165476879617974
30
0
10
1.6601091029376549
20
0.17024427644350384
30
0
10
1.6449571151296489
20
0.17916677725789579
30
0
10
1.6297253475310161
20
0.18878679285555022
30
0
10
1.6147157611761758
20
0.19948743653014372
30
0
10
1.6003611105547522
20
0.21161400787899104
30
0
10
1.5870878723260204
20
0.22542198151181631
30
0
10
1.5751706963581724
20
0.24102730200644545
30
0
10
1.5645659652256305
20
0.25834495019512249
30
0
10
1.5549755509777994
20
0.27712934743547446
30
0
10
1.5459545987319532
20
0.2970334913713274
30
0
10
1.5370069203896315
20
0.31766299411702603
30
0
10
1.5276787740826043
20
0.33862904990914461
30
0
10
1.5176698697440087
20
0.35960963992527883
30
0
10
1.506880016692518
20
0.38038043394449345
30
0
10
1.4953393574908633
20
0.4007913334738375
30
0
10
1.4831658409894595
20
0.42075534074856891
30
0
10
1.4705097043168287
20
0.44023234802708094
30
0
10
1.4575082222711786
20
0.45921539447039905
30
0
10
1.4442245422211635
20
0.47771514691661199
30
0
10
1.4306342821810731
20
0.49574763859929644
30
0
10
1.4166846439199725
20
0.51332580783670856
30
0
10
1.4023345903526589
20
0.53045066810601715
30
0
10
1.3876065206253909
20
0.54710155465259225
30
0
10
1.3726241015711136
20
0.56322923993934892
30
0
10
1.3576785069446016
20
0.57874159411189174
30
0
10
1.3431748933369447
20
0.59352219404685269
30
0
10
1.3295151742683469
20
0.60746644791796267
30
0
10
1.3169932969909195
20
0.62051457914172747
30
0
10
1.3057008471674296
20
0.63268097053350503
30
0
10
1.2953900267139864
20
0.64409723842409561
30
0
10
1.2855105813502956
20
0.65499993671972789
30
0
10
1.2754242502092561
20
0.66566243956972615
30
0
10
1.2645542492390232
20
0.67634643409627704
30
0
10
1.252598719135966
20
0.68723553789926706
30
0
10
1.239556541870634
20
0.69841872445733255
30
0
10
1.2256193185567794
20
0.70990844748416559
30
0
10
1.2111022676268532
20
0.72164920070043836
30
0
10
1.1963576902408686
20
0.73352926267114915
30
0
10
1.18170026212178
20
0.74539316040866932
30
0
10
1.1673745799376865
20
0.7570707277086357
30
0
10
1.1535159411424378
20
0.76840570093206928
30
0
10
1.1401209603650011
20
0.77928163291906294
30
0
10
1.12699656714295
20
0.78965581041147448
30
0
10
1.1137794769350104
20
0.79956566641152138
30
0
10
1.1000677936339522
20
0.80909116113910651
30
0
10
1.0855255145835172
20
0.8183276093133699
30
0
10
1.0699999540353862
20
0.82735397672052058
30
0
10
1.0536281586494738
20
0.8362040162632024
30
0
10
1.0367400421531772
20
0.84487461458885604
30
0
10
1.0197649456519817
20
0.85333298832480797
30
0
10
1.003139921966937
20
0.86152511160650935
30
0
10
0.98721035746329266
20
0.8693816985659345
30
0
10
0.97215562137250267
20
0.876831258947808
30
0
10
0.95799416779017865
20
0.88383495657012923
30
0
10
0.94457480981501785
20
0.89041783621544279
30
0
10
0.93157373670433152
20
0.89670125862197891
30
0
10
0.91848834687160086
20
0.90293537477821884
30
0
10
0.90478382567719851
20
0.90940347533343446
30
0
10
0.89003674907123187
20
0.91632794905959947
30
0
10
0.87408558991357777
20
0.92377162623394049
30
0
10
0.85716250670660443
20
0.93155204864703534
30
0
10
0.83973682929792237
20
0.93935217978229824
30
0
10
0.82236894679783179
20
0.94682521155164845
30
0
10
0.80556977000146435
20
0.95369273409897359
30
0
10
0.78963537761145031
20
0.95986668904657724
30
0
10
0.77456652415450156
20
0.96549155888602511
30
0
10
0.76017553008194472
20
0.97080785811741344
30
0
10
0.74615375898874359
20
0.97605676199939706
30
0
10
0.73215651822161065
20
0.98135891408285247
30
0
10
0.71787571493163471
20
0.98663195835033091
30
0
10
0.70308838114565353
20
0.99170269822640744
30
0
10
0.68770314091917351
20
0.99639345615944541
30
0
10
0.67181588190385333
20
1.0006266164570563
30
0
10
0.6557372912668975
20
1.0044974300540446
30
0
10
0.63985317545591547
20
1.0081821505376316
30
0
10
0.62450300823739346
20
1.0118639837656895
30
0
10
0.60985385871967202
20
1.015653774447199
30
0
10
0.59576982354758667
20
1.019508740555336
30
0
10
0.58191558361559648
20
1.0232952118076353
30
0
10
0.56786739783384388
20
1.0268546699081382
30
0
10
0.55322394822270848
20
1.0300730991552343
30
0
10
0.53770968761707438
20
1.0329358657998085
30
0
10
0.52122028490468908
20
1.0354866839285701
30
0
10
0.50387587279929769
20
1.0377971931077756
30
0
10
0.48606888810834636
20
1.0399329002576037
30
0
10
0.4685212386249471
20
1.0419194211730225
30
0
10
0.45198927233433872
20
1.0437533105887125
30
0
10
0.43693284244145036
20
1.0454153657749294
30
0
10
0.42324184213526667
20
1.0468821677176299
30
0
10
0.40982849359931084
20
1.0481404345705283
30
0
10
0.39487935871182089
20
1.0491890032342193
30
0
10
0.37642237094456643
20
1.0500353995804153
30
0
10
0.35276034174316578
20
1.050694095708677
30
0
10
0.32303657360979771
20
1.0511841386262684
30
0
10
0.28748693158038735
20
1.0515268045447315
30
0
10
0.24712503689572571
20
1.0517425651215107
30
0
10
0.20354855542758998
20
1.0518482425162314
30
0
10
0.15869659425031174
20
1.0518540618843581
30
0
10
0.11462919709207312
20
1.0517608051789868
30
0
10
0.073294563664873594
20
1.051556787519875
30
0
10
0.036307996676744253
20
1.0512152197211611
30
0
10
0.0047108092009365407
20
1.0506906830052121
30
0
10
-0.021226993530546193
20
1.0499176773393826
30
0
10
-0.042313150044810129
20
1.048803945340925
30
0
10
-0.060145108380339367
20
1.0472519119631836
30
0
10
-0.076624002178359213
20
1.0451886670680473
30
0
10
-0.093512004920820346
20
1.0425955981626081
30
0
10
-0.11202019335986536
20
1.0395326650264793
30
0
10
-0.13226000863674087
20
1.0361789217267772
30
0
10
-0.15344322836712654
20
1.0327885848318274
30
0
10
-0.17438247647200864
20
1.0296148053181444
30
0
10
-0.1939185955796871
20
1.0268389159021076
30
0
10
-0.21132503019240792
20
1.024508418683453
30
0
10
-0.22685416327078328
20
1.0224439747752003
30
0
10
-0.24167334585564837
20
1.0202732908034353
30
0
10
-0.25723049000352793
20
1.0175839645909268
30
0
10
-0.27481725066600432
20
1.0140332090675805
30
0
10
-0.29496690478316451
20
1.0094972914923339
30
0
10
-0.31719927092974398
20
1.0041317225252742
30
0
10
-0.34046473901724456
20
0.9982478007336486
30
0
10
-0.36344029425203112
20
0.992228365717292
30
0
10
-0.38490108560209735
20
0.98642318607535029
30
0
10
-0.40402115298587954
20
0.98106405692902632
30
0
10
-0.4208020054100774
20
0.97614362175153779
30
0
10
-0.43596724995982816
20
0.97144656911028104
30
0
10
-0.45054722186938506
20
0.96666955044535352
30
0
10
-0.4655795018742121
20
0.9615076802195901
30
0
10
-0.48171389194937825
20
0.95576904376406724
30
0
10
-0.49901000011619784
20
0.94943205177567891
30
0
10
-0.51717652830331473
20
0.94257182476438994
30
0
10
-0.53573602766209816
20
0.93530805425984243
30
0
10
-0.55420359716501211
20
0.92775032694995707
30
0
10
-0.57229722011832207
20
0.91993011411129022
30
0
10
-0.58999028875176296
20
0.91179363634768262
30
0
10
-0.60738637665765871
20
0.90326142506205986
30
0
10
-0.62463677227929149
20
0.89427341762081081
30
0
10
-0.64185073570368989
20
0.88483278211154726
30
0
10
-0.65898418319473784
20
0.87506768649814803
30
0
10
-0.67582832733675158
20
0.86522158693485862
30
0
10
-0.69212758298064281
20
0.8555541576155985
30
0
10
-0.70767008904381501
20
0.84625957853294442
30
0
10
-0.72237745206015291
20
0.8373892205000536
30
0
10
-0.73642421654676249
20
0.82874418434149855
30
0
10
-0.7502170689827441
20
0.81990345375830231
30
0
10
-0.76426231570265113
20
0.81035955230839085
30
0
10
-0.77906859334679135
20
0.79961986420824904
30
0
10
-0.79502899607270761
20
0.7873290058201271
30
0
10
-0.81232981654741032
20
0.77336193672068443
30
0
10
-0.83098937331659617
20
0.75776896652155845
30
0
10
-0.85088320190290256
20
0.7407362380049074
30
0
10
-0.87177447370296401
20
0.72254065174976789
30
0
10
-0.89334213263479489
20
0.7035063467696917
30
0
10
-0.91521014086622154
20
0.68396241434512184
30
0
10
-0.93697591056753493
20
0.66419515529424811
30
0
10
-0.95824120697340109
20
0.64443670180472179
30
0
10
-0.97864334341236703
20
0.62486441930169923
30
0
10
-0.99788681053627193
20
0.60559648551319289
30
0
10
-1.0157735586655852
20
0.58668949920802926
30
0
10
-1.0322365586111539
20
0.56813421873497438
30
0
10
-1.0473656265705429
20
0.54985444220469126
30
0
10
-1.0614528666852971
20
0.53169851385599565
30
0
10
-1.0749300374443211
20
0.51347090462816913
30
0
10
-1.0882654981744579
20
0.49497887880109659
30
0
10
-1.1018768848084259
20
0.47607305720428339
30
0
10
-1.1160317301791103
20
0.45669310069954899
30
0
10
-1.1307660658033816
20
0.43690519653798798
30
0
10
-1.1457622814518773
20
0.41695853240211422
30
0
10
-1.1604518906501615
20
0.39723656210938135
30
0
10
-1.1741967725009015
20
0.37817171797887672
30
0
10
-1.1864413101656146
20
0.36017335975537279
30
0
10
-1.1968838588998409
20
0.34354756949381871
30
0
10
-1.2056231030654061
20
0.32842659717711997
30
0
10
-1.2133603336561221
20
0.31467773269885818
30
0
10
-1.221076721894863
20
0.30199860367913622
30
0
10
-1.2296021561877493
20
0.29004701461285926
30
0
10
-1.2392727897096305
20
0.27854797871978026
30
0
10
-1.2494242033327105
20
0.26743719275842487
30
0
10
-1.2589086287205598
20
0.25678557997345847
30
0
10
-1.2668252432280305
20
0.24667623742639699
30
0
10
-1.2732339558828658
20
0.23709024616133179
30
0
10
-1.2797191111114381
20
0.22780921045625926
30
0
10
-1.2882138627270068
20
0.21854293027915553
30
0
10
-1.3000067023813326
20
0.20903429076371788
30
0
10
-1.3146092198999952
20
0.19917854524435011
30
0
10
-1.3304421607640069
20
0.18903787603809802
30
0
10
-1.345661011018056
20
0.17886185672847907
30
0
10
-1.3588378689984471
20
0.16908601205098159
30
0
10
-1.3699288771344897
20
0.16038682683425368
30
0
10
-1.380226115591938
20
0.15352543642801142
30
0
10
-1.3913357608387253
20
0.14898822158846831
30
0
10
-1.4044134577906173
20
0.14667874778368942
30
0
10
-1.419316727234097
20
0.14560021807670417
30
0
10
-1.4351639821302387
20
0.14437038201344851
30
0
10
-1.4508231026460372
20
0.14168999398070087
30
0
10
-1.4654716219344099
20
0.13687946385782845
30
0
10
-1.4789956500695525
20
0.13023642276953301
30
0
10
-1.4916648235730665
20
0.12255259285955478
30
0
10
-1.5039211318911729
20
0.11476891096864364
30
0
10
-1.5160893488767624
20
0.10752604332605466
30
0
10
-1.5282320066409123
20
0.10092354514737151
30
0
10
-1.5402922332048179
20
0.094688439382739589
30
0
10
-1.552170434241289
20
0.088268644737043711
30
0
10
-1.5638487959597134
20
0.080941867096235243
30
0
10
-1.5753723534015103
20
0.072001796429471132
30
0
10
-1.5867797415131617
20
0.060991660176837374
30
0
10
-1.5980517410105792
20
0.047912923658682986
30
0
10
-1.6090472611297473
20
0.033468050367803627
30
0
10
-1.6195751329501324
20
0.018711541903676847
30
0
10
-1.6294810212026198
20
0.0046358070608122429
30
0
10
-1.6387141265181178
20
-0.0081652157025522681
30
0
10
-1.6474378647094141
20
-0.019994822877321339
30
0
10
-1.6559855901098584
20
-0.03198946564459982
30
0
10
-1.6646042121427489
20
-0.045314536923351009
30
0
10
-1.6732874010045982
20
-0.06063792014458614
30
0
10
-1.6814921493086834
20
-0.077290077686637385
30
0
10
-1.6881980033849253
20
-0.09328715181211937
30
0
10
-1.6925058558208732
20
-0.10666928896498433
30
0
10
-1.6940234509206114
20
-0.11634743073680354
30
0
10
-1.6935253031848552
20
-0.12354517215026334
30
0
10
-1.6928183929684701
20
-0.1315595986530802
30
0
10
-1.6932711674275238
20
-0.14270196293004128
30
0
10
-1.6949247480221494
20
-0.15647757910174714
30
0
10
-1.6971559423046025
20
-0.17117233375174823
30
0
10
-1.6991529227195203
20
-0.18498609077595948
30
0
10
-1.7005421248414274
20
-0.19760076386777795
30
0
10
-1.7013155058649772
20
-0.20958901165048202
30
0
10
-1.7016408988839313
20
-0.22157247440033384
30
0
10
-1.7016717542328437
20
-0.23310436248287247
30
0
10
-1.7015023881276463
20
-0.24297399402700318
30
0
10
-1.7012676978465293
20
-0.25074885253989099
30
0
10
-1.7012583908284951
20
-0.25847897796771668
30
0
10
-1.7015919154816712
20
-0.26918837982949545
30
0
10
-1.7014063199520755
20
-0.28311564427119779
30
0
10
-1.6989266682128372
20
-0.29690492043429401
30
0
10
-1.6928323643898471
20
-0.30690941653791104
30
0
10
-1.6835297593943579
20
-0.31195159821071294
30
0
10
-1.6739888921308725
20
-0.31547995969992354
30
0
10
-1.6675295647229853
20
-0.32212247860554
30
0
10
-1.6654222466018078
20
-0.3341344058395555
30
0
10
-1.6663389793046548
20
-0.35040915314495469
30
0
10
-1.6679420467277117
20
-0.36854245558813215
30
0
10
-1.6678140132913664
20
-0.38596204026695008
30
0
10
-1.664835625687856
20
-0.40166957628416905
30
0
10
-1.6590166156751687
20
-0.41596953603381581
30
0
10
-1.6509993672698906
20
-0.4297738682377425
30
0
10
-1.6416966112849076
20
-0.44409435363401006
30
0
10
-1.6318084814172023
20
-0.45933747657947044
30
0
10
-1.6217326263084622
20
-0.47531136623371012
30
0
10
-1.611642963489333
20
-0.49154398990091364
30
0
10
-1.6015154591102454
20
-0.50750862777831718
30
0
10
-1.5911769536218978
20
-0.52287732339577331
30
0
10
-1.5803412395710028
20
-0.53779028273236362
30
0
10
-1.5686913033210299
20
-0.55269090323306846
30
0
10
-1.5559618392799908
20
-0.56811979160908577
30
0
10
-1.5420254425909368
20
-0.58451723693613189
30
0
10
-1.5269689256695589
20
-0.60203691082208077
30
0
10
-1.5111957659051349
20
-0.62031579167105233
30
0
10
-1.4953057683314064
20
-0.63863979145718464
30
0
10
-1.4799372820573102
20
-0.65617693699992363
30
0
10
-1.4656209371956863
20
-0.67218906449769977
30
0
10
-1.4526320409562039
20
-0.68624771118269889
30
0
10
-1.4408352623169782
20
-0.698459648538861
30
0
10
-1.4295558956410614
20
-0.70965613097861702
30
0
10
-1.4178227377237709
20
-0.72106783706983157
30
0
10
-1.4045985174507889
20
-0.73401736661388461
30
0
10
-1.3889963699676815
20
-0.74963040151844962
30
0
10
-1.3705472268097978
20
-0.76847793362142769
30
0
10
-1.3492704456718194
20
-0.79048525861824404
30
0
10
-1.3255354620844046
20
-0.81512436449448888
30
0
10
-1.2999793763903509
20
-0.84153047422737282
30
0
10
-1.2734017935893829
20
-0.86864941048419742
30
0
10
-1.2466692366892616
20
-0.89537204262736991
30
0
10
-1.2206158463493237
20
-0.92067361993752939
30
0
10
-1.1959447420949576
20
-0.94375256009849096
30
0
10
-1.1731313107967065
20
-0.96416579576565986
30
0
10
-1.1523196142971865
20
-0.98197567831046761
30
0
10
-1.1333841575961277
20
-0.9976189922197124
30
0
10
-1.116000338068907
20
-1.0117607118636398
30
0
10
-1.0997110112991655
20
-1.0251558461352734
30
0
10
-1.0839962951271931
20
-1.0385021938168284
30
0
10
-1.0683382359371518
20
-1.0523102683695809
30
0
10
-1.0522972479045682
20
-1.0667319323137181
30
0
10
-1.0355294480008794
20
-1.0815987931709925
30
0
10
-1.017779752576512
20
-1.0965478283316235
30
0
10
-0.99888262420243479
20
-1.1111176914262844
30
0
10
-0.97875999580467266
20
-1.124859875055868
30
0
10
-0.95741956576592502
20
-1.1374373020350328
30
0
10
-0.93495515925395667
20
-1.1487446471176803
30
0
10
-0.91152574484599092
20
-1.1588699513822387
30
0
10
-0.88733012858676041
20
-1.1680267145809189
30
0
10
-0.86258345830474836
20
-1.176496859703964
30
0
10
-0.83749230123959961
20
-1.184567691696917
30
0
10
-0.8122318795214748
20
-1.1924747786828285
30
0
10
-0.78691866148142953
20
-1.2003342470397587
30
0
10
-0.76159659007674052
20
-1.2081048297865475
30
0
10
-0.73626599782112701
20
-1.2156425922934466
30
0
10
-0.71090559599199066
20
-1.22274030614655
30
0
10
-0.68549648167381338
20
-1.229172036120445
30
0
10
-0.66004690162401258
20
-1.2347373925773077
30
0
10
-0.634612916279369
20
-1.2393015178383595
30
0
10
-0.60933017903970166
20
-1.2428478291659713
30
0
10
-0.58440337982886836
20
-1.2454815230879148
30
0
10
-0.56005402431502638
20
-1.2473850770531123
30
0
10
-0.53648073270241292
20
-1.2487873399008751
30
0
10
-0.51381201401119792
20
-1.2499261274448517
30
0
10
-0.49206780872094841
20
-1.2510157646143396
30
0
10
-0.4711038298408507
20
-1.2522072621250007
30
0
10
-0.45060784236259704
20
-1.2535690180100532
30
0
10
-0.43020773287685043
20
-1.2551107589058264
30
0
10
-0.40955590505666556
20
-1.2567985753354693
30
0
10
-0.38842456672820458
20
-1.2585735918526886
30
0
10
-0.36679299734435106
20
-1.2603688829719153
30
0
10
-0.34494732599364286
20
-1.2621276934699299
30
0
10
-0.32334651143737619
20
-1.263805617603474
30
0
10
-0.30248163147465673
20
-1.2653719562757861
30
0
10
-0.28272907346876452
20
-1.266811689914253
30
0
10
-0.26422563819480355
20
-1.268126457149652
30
0
10
-0.24668617205292423
20
-1.2693377863983317
30
0
10
-0.22945276084152919
20
-1.2704815229603341
30
0
10
-0.21171952008118411
20
-1.2715957095921524
30
0
10
-0.19271048174063607
20
-1.2727100666879776
30
0
10
-0.1718681000309609
20
-1.2738354638907399
30
0
10
-0.14906012650245595
20
-1.27495167740425
30
0
10
-0.12451164563100878
20
-1.2760160282186022
30
0
10
-0.098697476595034667
20
-1.2769750496246102
30
0
10
-0.072249601163913463
20
-1.2777748212262821
30
0
10
-0.045856314916848086
20
-1.278372440652922
30
0
10
-0.020169472430206663
20
-1.2787456651867539
30
0
10
0.0043030649178304016
20
-1.2789066893430776
30
0
10
0.027249612294781001
20
-1.2788996181608574
30
0
10
0.048565640827131815
20
-1.2787855761769094
30
0
10
0.06837629984423356
20
-1.278631451654175
30
0
10
0.087055040508682111
20
-1.2784970341856752
30
0
10
0.10524194429560728
20
-1.278423100634859
30
0
10
0.1238675614591663
20
-1.2784183849581048
30
0
10
0.14402828023338898
20
-1.2784662612570916
30
0
10
0.16685427123276056
20
-1.2785323316539092
30
0
10
0.18807497492818348
20
-1.2785638160223567
30
0
10
0.20601931068510621
20
-1.2785537978391375
30
0
10
0.21894423110517025
20
-1.2785263323735421
30
0
10
0.22565068878201036
20
-1.2785067696491721
30
0
0
CIRCLE
5
104
100
AcDbEntity
8
0
100
AcDbCircle
10
-1.2802773236078553
20
-0.23459677451466529
30
0
40
0.39999999999999997
210
0
220
0
230
1
0
CIRCLE
5
105
100
AcDbEntity
8
0
100
AcDbCircle
10
1.6096231424406735
20
-0.26886342038787697
30
0
40
0.39999999999999997
210
0
220
0
230
1
0
ENDSEC
0
SECTION
2
OBJECTS
0
DICTIONARY
5
C
100
AcDbDictionary
3
ACAD_GROUP
350
D
3
ACAD_MLINESTYLE
350
17
0
DICTIONARY
5
D
100
AcDbDictionary
0
DICTIONARY
5
1A
330
C
100
AcDbDictionary
0
DICTIONARY
5
17
100
AcDbDictionary
0
ENDSEC
0
EOF
